<?xml version="1.0"?>
<svg version="1.1" xmlns="http://www.w3.org/2000/svg" width="200" height="40" style=""><path fill="#fefefe" d="M15.833984375,24.921875q0-0.95703125,0.0888671875-2.48828125t0.2119140625-3.158203125t0.3076171875-3.0830078125t0.4033203125-2.2353515625q0.08203125-0.341796875,0.3896484375-0.41015625t0.6220703125-0.068359375q0.423828125,0,0.7314453125,0.150390625t0.3076171875,0.65625q0,2.48828125-0.3076171875,4.9833984375t-0.3349609375,4.9833984375q0.423828125-0.642578125,1.09375-0.9638671875t1.421875-0.3212890625q1.0390625,0,1.791015625,0.423828125t1.216796875,1.09375t0.6904296875,1.5517578125t0.2255859375,1.7978515625q0,0.505859375-0.1025390625,1.2646484375t-0.3076171875,1.599609375t-0.51953125,1.66796875t-0.7451171875,1.4833984375t-0.9912109375,1.0595703125t-1.23046875,0.4033203125q-0.13671875,0-0.3623046875-0.041015625t-0.451171875-0.123046875t-0.3759765625-0.2119140625t-0.150390625-0.3212890625q0-0.21875,0.2666015625-0.3076171875t0.4306640625-0.0888671875q0.615234375-0.2734375,1.09375-1.1416015625t0.7998046875-1.9072265625t0.4853515625-2.0576171875t0.1640625-1.6611328125q0-0.369140625-0.109375-0.984375t-0.3349609375-1.216796875t-0.615234375-1.0390625t-0.9228515625-0.4375q-0.642578125,0-1.025390625,0.6630859375t-0.6015625,1.544921875t-0.2939453125,1.818359375t-0.0751953125,1.4697265625q0,0.341796875,0.1162109375,0.6767578125t0.2666015625,0.669921875t0.2666015625,0.68359375t0.1162109375,0.6904296875q0,0.1640625-0.1435546875,0.2734375t-0.3349609375,0.177734375t-0.4033203125,0.0888671875t-0.3212890625,0.0205078125q-0.779296875,0-1.080078125-0.369140625t-0.51953125-1.0390625q-0.478515625-1.517578125-0.6630859375-3.0830078125t-0.1845703125-3.1376953125z M27.49158203125,28.900390625q0-0.9296875,0.2529296875-1.791015625t0.7587890625-1.5380859375t1.2646484375-1.080078125t1.7568359375-0.4033203125q0.615234375,0,1.3603515625,0.1845703125t1.4013671875,0.546875t1.09375,0.9228515625t0.4375,1.28515625q0,0.341796875-0.1162109375,0.51953125t-0.4716796875,0.177734375l-0.150390625-0.02734375q0.396484375,1.06640625,0.68359375,2.1875t0.560546875,2.2421875q0.109375,0.21875,0.1640625,0.3896484375t0.0546875,0.3349609375q0,0.21875-0.123046875,0.3623046875t-0.3212890625,0.2119140625t-0.41015625,0.095703125t-0.3759765625,0.02734375q-0.587890625,0-0.8818359375-0.205078125t-0.423828125-0.560546875t-0.1572265625-0.7998046875t-0.109375-0.8955078125q-0.1640625,0.533203125-0.4306640625,1.0390625t-0.62890625,0.9091796875t-0.8544921875,0.642578125t-1.107421875,0.2392578125q-0.90234375,0-1.517578125-0.51953125t-0.9912109375-1.2783203125t-0.546875-1.6201171875t-0.1708984375-1.599609375z M29.43298828125,28.708984375q0,0.505859375,0.068359375,1.06640625t0.2255859375,1.107421875t0.4033203125,1.0322265625t0.615234375,0.8544921875q0.669921875-0.724609375,0.9912109375-1.763671875t0.57421875-2.0029296875t0.57421875-1.654296875t0.9912109375-0.6904296875q0.423828125,0,0.7109375,0.150390625q-0.13671875-0.341796875-0.451171875-0.6630859375t-0.7041015625-0.587890625t-0.806640625-0.4375t-0.7861328125-0.1708984375q-0.109375,0-0.2529296875,0.0341796875t-0.2255859375,0.0068359375q-0.560546875,0.1640625-0.9228515625,0.5673828125t-0.587890625,0.9501953125t-0.3212890625,1.12109375t-0.095703125,1.080078125z M39.3405859375,14.982421875q0-0.95703125,0.328125-1.28515625t0.916015625-0.328125q0.1640625,0,0.3486328125,0.02734375t0.3486328125,0.08203125q0.916015625-0.177734375,1.736328125-0.177734375q1.326171875,0,2.40625,0.46484375q1.736328125,0.73828125,2.87109375,2.1875t1.66796875,3.404296875t0.533203125,4.005859375q0,1.1484375-0.1572265625,2.392578125t-0.6083984375,2.310546875q-0.396484375,0.95703125-1.09375,2.0029296875t-1.5791015625,1.982421875t-1.900390625,1.640625t-2.0576171875,0.9501953125l0,0.109375q0,0.2734375-0.1435546875,0.4443359375t-0.3486328125,0.259765625t-0.4716796875,0.1162109375t-0.4990234375,0.02734375q-0.13671875,0-0.3896484375-0.02734375t-0.4921875-0.1025390625t-0.4033203125-0.1982421875t-0.1640625-0.341796875q0-2.48828125-0.1298828125-4.9833984375t-0.2939453125-4.990234375t-0.2939453125-4.9833984375t-0.1298828125-4.990234375z M41.9245703125,14.28515625q0.13671875,1.3125,0.177734375,2.6181640625t0.123046875,2.6181640625q0.21875,3.390625,0.505859375,6.7470703125t0.341796875,6.7470703125q1.3125-0.861328125,2.2490234375-1.96875t1.5380859375-2.40625t0.8818359375-2.7275390625t0.2802734375-2.9462890625q0-1.09375-0.19140625-2.40625t-0.65625-2.529296875t-1.2509765625-2.201171875t-1.9619140625-1.408203125q-0.24609375-0.08203125-0.5947265625-0.13671875t-1.1142578125-0.0546875q-0.08203125,0-0.1640625,0.02734375t-0.1640625,0.02734375z M53.28138671875,29.4609375q0-0.95703125,0.2119140625-2.255859375t0.7177734375-2.4609375t1.3330078125-1.9755859375t2.0849609375-0.8134765625q1.17578125,0,1.763671875,0.6767578125t0.587890625,1.8251953125q0,0.751953125-0.2802734375,1.6474609375t-0.7998046875,1.6953125t-1.23046875,1.3330078125t-1.5859375,0.533203125l-0.35546875-0.02734375q0,0.369140625,0.109375,0.9912109375t0.3212890625,1.2373046875t0.546875,1.080078125t0.8134765625,0.46484375q0.697265625,0,1.33984375-0.560546875t1.216796875-1.244140625t1.06640625-1.244140625t0.90234375-0.560546875q0.21875,0,0.451171875,0.068359375t0.259765625,0.3828125q0,0.19140625-0.1025390625,0.314453125t-0.1845703125,0.2734375q-0.423828125,0.724609375-0.9228515625,1.380859375t-1.1279296875,1.189453125t-1.3740234375,0.8408203125t-1.6474609375,0.3076171875q-1.17578125,0-1.955078125-0.4169921875t-1.2578125-1.12109375t-0.6904296875-1.626953125t-0.2119140625-1.9345703125z M55.72865234375,28.421875l0.3828125,0.341796875q0.2734375,0.24609375,0.546875,0.109375t0.4921875-0.4990234375t0.4033203125-0.8955078125t0.328125-1.09375t0.2119140625-1.09375t0.068359375-0.888671875l0-0.46484375t-0.041015625-0.4921875t-0.1435546875-0.3896484375t-0.3212890625-0.1982421875q-0.068359375-0.013671875-0.123046875-0.013671875q-0.46484375,0-0.79296875,0.587890625q-0.35546875,0.65625-0.57421875,1.5927734375t-0.314453125,1.9208984375t-0.123046875,1.4765625z M64.146015625,23.814453125q0-0.109375,0.1298828125-0.1982421875t0.2939453125-0.1298828125t0.3349609375-0.0546875t0.2529296875-0.013671875q0.615234375,0,1.052734375,0.546875t0.7587890625,1.4013671875t0.546875,1.88671875t0.4306640625,2.0576171875t0.4033203125,1.8798828125t0.4443359375,1.3193359375q0.423828125-0.833984375,0.7724609375-2.009765625t0.642578125-2.43359375t0.51953125-2.4814453125t0.3623046875-2.1396484375q0.0546875-0.24609375,0.341796875-0.3076171875t0.478515625-0.0615234375q0.314453125,0,0.546875,0.0888671875t0.232421875,0.3896484375q0,0.505859375-0.123046875,1.3740234375t-0.3349609375,1.9482421875t-0.4921875,2.21484375t-0.6015625,2.1533203125t-0.669921875,1.8046875t-0.6904296875,1.1142578125q-0.1640625,0.19140625-0.5126953125,0.2666015625t-0.5810546875,0.0751953125q-0.806640625,0-1.33984375-0.423828125l0,0.02734375q-0.833984375-0.779296875-1.23046875-1.900390625t-0.57421875-2.337890625t-0.3212890625-2.419921875t-0.4853515625-2.1875q-0.0546875-0.109375-0.13671875-0.3212890625t-0.19140625-0.423828125t-0.1845703125-0.4033203125t-0.0751953125-0.30078125z"/><path fill="#" d=""/></svg>
