<?xml version="1.0"?>
<svg version="1.1" xmlns="http://www.w3.org/2000/svg" width="109" height="43" style=""><path fill="#1ff092" d="M15.953125,20.609375q0-0.921875,0.9765625-1.7578125t2.3046875-1.4609375t2.671875-0.9921875t2.078125-0.3671875q0.703125,0,1.34375,0.171875t1.140625,0.5546875t0.8046875,0.9453125t0.3046875,1.328125q0,1.125-0.578125,2.359375t-1.421875,2.4140625t-1.7734375,2.265625t-1.6015625,1.8984375q0.796875,0.1875,1.5625,0.5546875t1.359375,0.9296875t0.9609375,1.28125t0.3671875,1.609375q0,1.15625-0.4765625,2.375t-1.3125,2.2109375t-1.921875,1.6328125t-2.3359375,0.640625q-0.546875,0-1.0234375-0.1171875t-0.7421875-0.2734375q-0.359375-0.1875-0.609375-0.4765625t-0.25-0.7421875q0-0.546875,0.3984375-0.6875t0.8515625-0.140625q0.125,0,0.3671875,0.0625t0.484375,0.15625t0.4296875,0.2265625t0.21875,0.2890625q0.578125-0.359375,1.078125-0.9453125t0.8671875-1.2734375t0.5859375-1.4296875t0.21875-1.4140625q0-0.953125-0.3515625-1.578125t-0.859375-0.9921875t-1.1171875-0.546875t-1.125-0.3046875t-0.8671875-0.265625t-0.3515625-0.40625q0-0.0625,0.078125-0.1875q0.484375-0.484375,1.1328125-1.171875t1.3359375-1.5t1.359375-1.6953125t1.203125-1.765625t0.8671875-1.7109375t0.3359375-1.5q0-0.578125-0.2109375-1.125t-0.7890625-0.546875q-0.453125,0-1.421875,0.375t-1.9453125,0.9140625t-1.7421875,1.1640625t-0.765625,1.109375q0.15625,0.0625,0.296875,0.1875t0.140625,0.296875q0,0.125-0.125,0.21875t-0.2890625,0.140625t-0.3203125,0.0625t-0.25,0.015625q-0.21875,0-0.4765625-0.0625t-0.5-0.1875t-0.40625-0.3203125t-0.1640625-0.4453125z M30.77609375,27.640625q0-0.640625,0.375-1.1015625t0.9140625-0.75t1.1796875-0.4296875t1.1875-0.140625q0.421875,0,1.125,0.125t1.375,0.375t1.1640625,0.65625t0.4921875,0.953125q0,0.25-0.1875,0.4453125t-0.390625,0.1953125q-0.421875,0-0.765625-0.2734375t-0.7109375-0.578125t-0.8046875-0.578125t-0.984375-0.2734375t-0.9921875,0.3515625t-0.4453125,0.9296875q0,0.953125,0.671875,1.8671875t1.4765625,1.921875t1.4765625,2.1171875t0.671875,2.453125q0,0.578125-0.2421875,0.9765625t-0.640625,0.6484375t-0.8984375,0.3828125t-0.96875,0.1328125q-0.515625,0-1.203125-0.2421875t-1.296875-0.640625t-1.0234375-0.9296875t-0.4140625-1.109375q0-0.28125,0.3984375-0.359375t0.5859375-0.078125q0.09375,0,0.2890625,0.0625t0.3828125,0.140625t0.3359375,0.171875t0.1171875,0.203125q0.15625,0.1875,0.4765625,0.5546875t0.640625,0.59375t0.5625,0.1640625t0.2421875-0.703125q0-1.21875-0.65625-2.2421875t-1.4296875-2t-1.4296875-1.9375t-0.65625-2.0546875z M41.7865625,15.765625q0-1.09375,0.375-1.46875t1.046875-0.375q0.1875,0,0.3984375,0.03125t0.3984375,0.09375q1.046875-0.203125,1.984375-0.203125q1.515625,0,2.75,0.53125q1.984375,0.84375,3.28125,2.5t1.90625,3.890625t0.609375,4.578125q0,1.3125-0.1796875,2.734375t-0.6953125,2.640625q-0.453125,1.09375-1.25,2.2890625t-1.8046875,2.265625t-2.171875,1.875t-2.3515625,1.0859375l0,0.125q0,0.3125-0.1640625,0.5078125t-0.3984375,0.296875t-0.5390625,0.1328125t-0.5703125,0.03125q-0.15625,0-0.4453125-0.03125t-0.5625-0.1171875t-0.4609375-0.2265625t-0.1875-0.390625q0-2.84375-0.1484375-5.6953125t-0.3359375-5.703125t-0.3359375-5.6953125t-0.1484375-5.703125z M44.7396875,14.96875q0.15625,1.5,0.203125,2.9921875t0.140625,2.9921875q0.25,3.875,0.578125,7.7109375t0.390625,7.7109375q1.5-0.984375,2.5703125-2.25t1.7578125-2.75t1.0078125-3.1171875t0.3203125-3.3671875q0-1.25-0.21875-2.75t-0.75-2.890625t-1.4296875-2.515625t-2.2421875-1.609375q-0.28125-0.09375-0.6796875-0.15625t-1.2734375-0.0625q-0.09375,0-0.1875,0.03125t-0.1875,0.03125z M57.71890625,32.3125q0-1.09375,0.2421875-2.578125t0.8203125-2.8125t1.5234375-2.2578125t2.3828125-0.9296875q1.34375,0,2.015625,0.7734375t0.671875,2.0859375q0,0.859375-0.3203125,1.8828125t-0.9140625,1.9375t-1.40625,1.5234375t-1.8125,0.609375l-0.40625-0.03125q0,0.421875,0.125,1.1328125t0.3671875,1.4140625t0.625,1.234375t0.9296875,0.53125q0.796875,0,1.53125-0.640625t1.390625-1.421875t1.21875-1.421875t1.03125-0.640625q0.25,0,0.515625,0.078125t0.296875,0.4375q0,0.21875-0.1171875,0.359375t-0.2109375,0.3125q-0.484375,0.828125-1.0546875,1.578125t-1.2890625,1.359375t-1.5703125,0.9609375t-1.8828125,0.3515625q-1.34375,0-2.234375-0.4765625t-1.4375-1.28125t-0.7890625-1.859375t-0.2421875-2.2109375z M60.51578125,31.125l0.4375,0.390625q0.3125,0.28125,0.625,0.125t0.5625-0.5703125t0.4609375-1.0234375t0.375-1.25t0.2421875-1.25t0.078125-1.015625l0-0.53125t-0.046875-0.5625t-0.1640625-0.4453125t-0.3671875-0.2265625q-0.078125-0.015625-0.140625-0.015625q-0.53125,0-0.90625,0.671875q-0.40625,0.75-0.65625,1.8203125t-0.359375,2.1953125t-0.140625,1.6875z M70.135625,25.859375q0-0.125,0.1484375-0.2265625t0.3359375-0.1484375t0.3828125-0.0625t0.2890625-0.015625q0.703125,0,1.203125,0.625t0.8671875,1.6015625t0.625,2.15625t0.4921875,2.3515625t0.4609375,2.1484375t0.5078125,1.5078125q0.484375-0.953125,0.8828125-2.296875t0.734375-2.78125t0.59375-2.8359375t0.4140625-2.4453125q0.0625-0.28125,0.390625-0.3515625t0.546875-0.0703125q0.359375,0,0.625,0.1015625t0.265625,0.4453125q0,0.578125-0.140625,1.5703125t-0.3828125,2.2265625t-0.5625,2.53125t-0.6875,2.4609375t-0.765625,2.0625t-0.7890625,1.2734375q-0.1875,0.21875-0.5859375,0.3046875t-0.6640625,0.0859375q-0.921875,0-1.53125-0.484375l0,0.03125q-0.953125-0.890625-1.40625-2.171875t-0.65625-2.671875t-0.3671875-2.765625t-0.5546875-2.5q-0.0625-0.125-0.15625-0.3671875t-0.21875-0.484375t-0.2109375-0.4609375t-0.0859375-0.34375z"/><path fill="#" d=""/></svg>
